<svg width="512" height="448" viewBox="0 0 512 448" fill="none" xmlns="http://www.w3.org/2000/svg">
<path d="M464 96H352V24C352 10.74 341.26 0 328 0H184C170.74 0 160 10.74 160 24V96H48C21.49 96 0 117.49 0 144V400C0 426.51 21.49 448 48 448H464C490.51 448 512 426.51 512 400V144C512 117.49 490.51 96 464 96ZM192 32H320V96H192V32ZM480 400C480 408.82 472.82 416 464 416H48C39.18 416 32 408.82 32 400V256H192V296C192 309.25 202.75 320 216 320H296C309.25 320 320 309.25 320 296V256H480V400ZM224 288V256H288V288H224ZM480 224H32V144C32 135.18 39.18 128 48 128H464C472.82 128 480 135.18 480 144V224Z" fill="white"/>
</svg>
