<svg width="576" height="512" viewBox="0 0 576 512" fill="none" xmlns="http://www.w3.org/2000/svg">
<path d="M544 184.88V32C544 23.26 537.02 0 512.01 0H512C504.88 0 497.81 2.38 492.02 7.02L406.99 75.05C364.28 109.19 310.66 128 256 128H64C28.65 128 0 156.65 0 192V288C0 323.35 28.65 352 64 352L63.52 384C63.52 423.77 72.78 461.35 89.08 494.94C94.27 505.63 105.6 512 117.48 512H223.76C249.81 512 265.45 482.16 249.66 461.44C233.26 439.92 223.51 413.08 223.51 384C223.51 372.89 225.13 362.21 227.92 352H256C310.66 352 364.28 370.81 406.98 404.95L492.01 472.98C497.681 477.518 504.727 479.994 511.99 480C536.91 480 543.99 457.22 543.99 448V295.12C563.04 284.03 575.99 263.63 575.99 240C576 216.37 563.05 195.97 544 184.88ZM223.76 480L117.87 479.97C103.04 449.41 95.52 417.78 95.51 384.48L95.99 352.48L96 352H195.33C193.02 362.7 191.52 373.43 191.52 384C191.52 419.29 202.82 452.78 223.76 480ZM64 320C46.36 320 32 305.64 32 288V192C32 174.36 46.36 160 64 160H256V320H64ZM512.05 446.93C512.01 447.18 511.92 447.51 511.8 447.83L426.97 379.96C386.99 348 338.54 328.14 288 322.13V157.87C338.54 151.86 386.99 132 426.98 100.03L511.85 32.13C511.88 32.16 511.91 32.18 511.93 32.18C511.97 32.18 511.99 32.13 512 32.01L512.05 446.93Z" fill="white"/>
</svg>
