<svg width="641" height="385" viewBox="0 0 641 385" fill="none" xmlns="http://www.w3.org/2000/svg">
<path d="M16 255.9C24.8 255.9 32 248.7 32 239.9C32 231.1 24.8 223.9 16 223.9C7.2 223.9 0 231.1 0 239.9C0 248.8 7.2 255.9 16 255.9ZM632 64.1L518.5 64.3L467.3 14.4C458.2 5.3 446.2 0.299995 433.4 0.299995H332.4C322 0.299995 312.3 4.2 304.1 10.3C295.7 3.8 285.4 0 274.8 0H205.3C192.6 0 180.4 5.1 171.4 14.1L121.4 64.1H8C3.6 64.1 0 67.7 0 72.1V88.1C0 92.5 3.6 96.1 8 96.1H64V288H8C3.6 288 0 291.6 0 296V312C0 316.4 3.6 320 8 320H64C81.6 320 95.8 305.8 95.9 288.3H129.1L210.6 366.3C240.4 390.4 282.4 389.7 311.6 366.1L318.8 372.3C328.4 380.1 340.1 384.2 352.3 384.2C368.3 384.2 383.4 377.2 393.7 364.6L415.6 337.7C432 346.6 458.5 346.7 475.6 325.7L485.1 314C491.3 306.4 494.7 297.4 495.6 288.3H544.2C544.3 305.8 558.6 320 576.1 320H632.1C636.5 320 640.1 316.4 640.1 312V296C640.1 291.6 636.5 288 632.1 288H576.1V96.3L632.1 96.1C636.5 96.1 640.1 92.5 640.1 88.1V72.1C640 67.6 636.4 64.1 632 64.1V64.1ZM460.2 293.7L450.7 305.4C445.3 312 435.3 313.5 428.2 307.7L410.4 293.3L368.9 344.3C361.4 353.6 347.9 354.5 339.5 347.7L308.9 321.6L298.5 334.4C281.8 354.9 251.5 358.1 231.9 342.3L142 256.2H96V96H134.6L193.9 36.7C196.9 33.7 201 32 205.2 32H274.7C275.6 34.2 275 32.7 275.8 34.9L216.8 89.1C188.6 115 187.2 158.3 212.6 186C226.9 201.6 271.2 225.3 309.5 190.2L332.3 169.3L457.9 271.2C464.7 276.8 465.7 286.9 460.2 293.7ZM544 256.2H486.8C484.3 252.7 481.5 249.3 478 246.4L356.1 147.4L384.5 121.3C391 115.3 391.5 105.2 385.5 98.7C379.5 92.2 369.4 91.8 362.9 97.7L287.8 166.5C273.4 179.6 249.2 178.5 236.1 164.3C222.5 149.5 223.4 126.3 238.3 112.6L321.4 36.4C324.4 33.7 328.2 32.2 332.2 32.2H433.2C437.5 32.2 441.5 33.9 444.6 37L505.3 96.1H544V256.2ZM624 224C615.2 224 608 231.2 608 240C608 248.8 615.2 256 624 256C632.8 256 640 248.8 640 240C640 231.1 632.8 224 624 224Z" fill="white"/>
</svg>
