<?xml version="1.0" standalone="no"?>
<!DOCTYPE svg PUBLIC "-//W3C//DTD SVG 20010904//EN"
 "http://www.w3.org/TR/2001/REC-SVG-20010904/DTD/svg10.dtd">
<svg version="1.0" xmlns="http://www.w3.org/2000/svg"
 width="600.000000pt" height="176.000000pt" viewBox="0 0 600.000000 176.000000"
 preserveAspectRatio="xMidYMid meet">
<metadata>
Created by potrace 1.15, written by Peter Selinger 2001-2017
</metadata>
<g transform="translate(0.000000,176.000000) scale(0.100000,-0.100000)"
fill="#000000" stroke="none">
<path d="M2181 1579 c-124 -24 -234 -108 -290 -221 -31 -60 -31 -63 -31 -218
l0 -157 36 -71 c49 -98 126 -171 222 -208 1 -1 -21 -61 -49 -135 -28 -74 -53
-157 -56 -186 -14 -130 73 -208 207 -187 58 9 101 42 129 97 21 41 28 47 56
47 28 0 35 -6 56 -47 43 -84 122 -115 236 -93 48 10 69 9 120 -4 84 -22 176
-20 243 5 87 32 103 33 151 7 41 -21 54 -23 196 -21 106 1 169 6 208 17 53 16
58 16 126 -5 64 -19 85 -21 193 -15 77 5 140 14 175 27 l55 19 72 -25 c87 -30
189 -33 277 -8 51 14 70 15 131 5 71 -12 106 -8 173 19 27 11 37 10 74 -6 58
-27 141 -25 197 4 l42 21 40 -20 c21 -11 48 -20 58 -20 33 0 54 -25 63 -75 16
-87 60 -115 179 -115 94 0 138 18 188 75 42 47 56 76 109 224 139 389 154 459
117 537 -34 71 -158 97 -253 53 l-45 -20 -49 21 c-40 17 -69 21 -151 21 -102
0 -380 4 -468 7 l-48 2 0 60 c0 65 2 68 78 121 102 70 97 229 -8 281 -45 23
-254 25 -315 3 -53 -19 -75 -19 -132 4 -108 42 -226 35 -337 -21 l-60 -30 -60
33 c-44 24 -78 34 -125 38 -69 6 -69 6 -96 84 -24 67 -58 87 -153 87 -71 0
-74 -1 -114 -38 -33 -32 -42 -47 -49 -92 -5 -29 -12 -57 -16 -61 -5 -5 -27 -2
-49 6 -51 17 -82 18 -324 7 -218 -9 -235 -14 -292 -82 l-34 -41 -32 41 c-19
23 -58 53 -90 69 -31 16 -71 46 -88 68 -74 91 -246 141 -393 112z m125 -348
c5 -5 42 -26 82 -46 107 -53 100 -69 -53 -115 -22 -7 -48 -19 -58 -28 -13 -12
-22 -13 -42 -4 -49 22 -58 139 -14 183 20 20 68 26 85 10z m1764 -461 l0 -330
-40 0 c-34 0 -40 3 -40 20 0 20 0 20 -30 -2 -45 -33 -133 -36 -185 -6 -62 36
-99 118 -100 217 0 92 16 141 62 192 58 64 144 75 220 28 l33 -21 0 116 0 116
40 0 40 0 0 -330z m-1612 253 c27 -59 222 -564 222 -575 0 -4 -20 -8 -44 -8
l-44 0 -28 80 -27 80 -131 0 -131 0 -29 -80 -28 -80 -45 0 c-53 0 -60 -32 59
275 49 127 99 258 110 293 21 61 21 62 58 62 34 0 38 -3 58 -47z m588 -134
c36 -22 62 -63 75 -116 7 -33 7 -33 -31 -33 -31 0 -40 4 -45 23 -4 12 -19 34
-33 50 -21 22 -34 27 -73 27 -90 0 -123 -52 -118 -184 4 -80 6 -88 35 -117 57
-57 158 -42 184 26 8 21 16 25 50 25 43 0 46 -4 29 -47 -49 -131 -262 -153
-342 -35 -94 138 -39 362 99 400 54 15 129 7 170 -19z m452 4 c61 -29 66 -48
73 -243 3 -96 10 -183 14 -192 6 -16 1 -18 -38 -18 -37 0 -47 4 -52 20 -6 20
-7 20 -37 -1 -17 -13 -52 -24 -78 -27 -99 -9 -169 41 -178 127 -9 100 59 156
203 165 l80 5 -1 36 c-1 19 -9 44 -18 54 -40 44 -146 29 -166 -24 -8 -21 -16
-25 -50 -25 -47 0 -52 16 -20 67 18 31 58 57 110 74 34 11 117 1 158 -18z
m937 16 c22 -6 56 -28 76 -48 41 -40 59 -91 59 -163 l0 -48 -155 0 -155 0 0
-27 c0 -103 136 -157 224 -89 33 25 35 25 57 7 29 -23 21 -43 -31 -77 -53 -36
-141 -44 -204 -20 -113 43 -164 178 -121 322 17 59 74 119 131 139 48 17 68
18 119 4z m508 -3 c18 -7 40 -22 50 -34 l18 -20 26 24 c50 46 163 56 220 19
50 -33 58 -66 61 -267 l4 -188 -46 0 -46 0 0 175 c0 173 0 176 -25 200 -43 44
-137 27 -163 -30 -8 -17 -12 -83 -12 -185 l0 -160 -45 0 -45 0 0 175 c0 173 0
176 -25 200 -37 37 -106 35 -146 -4 l-29 -29 0 -171 0 -171 -40 0 -40 0 0 235
0 235 40 0 c33 0 40 -3 40 -20 0 -24 13 -26 30 -5 27 32 120 44 173 21z m589
-168 l55 -171 31 99 c17 54 40 132 52 172 l22 72 49 0 48 0 -35 -97 c-20 -54
-65 -181 -100 -282 -35 -101 -73 -199 -84 -216 -24 -39 -74 -65 -124 -65 -35
0 -36 1 -36 40 0 38 2 40 29 40 48 0 62 10 86 63 l23 50 -38 106 c-21 58 -58
161 -84 229 -25 68 -46 125 -46 128 0 2 22 4 48 4 l48 0 56 -172z"/>
<path d="M3812 815 c-40 -33 -56 -90 -49 -172 6 -74 32 -117 82 -133 42 -14
86 -2 122 32 21 20 23 30 23 129 0 98 -2 110 -23 135 -18 20 -35 28 -73 31
-43 5 -54 2 -82 -22z"/>
<path d="M2357 822 c-26 -71 -47 -135 -47 -141 0 -7 31 -11 95 -11 72 0 95 3
95 13 0 15 -76 231 -89 255 -5 9 -23 -29 -54 -116z"/>
<path d="M3330 642 c-30 -14 -35 -23 -38 -55 -6 -66 40 -95 119 -74 52 13 79
48 79 103 l0 44 -62 0 c-40 0 -76 -6 -98 -18z"/>
<path d="M4314 825 c-21 -14 -54 -72 -54 -94 0 -7 38 -11 114 -11 l114 0 -9
38 c-11 51 -49 82 -102 82 -24 0 -52 -7 -63 -15z"/>
</g>
</svg>
